<mxfile host="app.diagrams.net" modified="2023-07-09T14:39:09.462Z" agent="Mozilla/5.0 (Macintosh; Intel Mac OS X 10_15_7) AppleWebKit/537.36 (KHTML, like Gecko) Chrome/114.0.0.0 Safari/537.36" version="21.6.1" etag="ROtcK5-fLzyjDgBppspb" type="github">
  <diagram name="第 1 页" id="6t4L1M5FkBROm4RmHd7e">
    <mxGraphModel>
      <root>
        <mxCell id="0" />
        <mxCell id="1" parent="0" />
      </root>
    </mxGraphModel>
  </diagram>
</mxfile>
